<svg width="122" height="24" viewBox="0 0 122 24" fill="none" xmlns="http://www.w3.org/2000/svg">
<path d="M6.86035 13.2603H3.63135V11.957H6.86035C7.48568 11.957 7.99202 11.8574 8.37939 11.6582C8.76676 11.459 9.04899 11.1823 9.22607 10.8281C9.40869 10.474 9.5 10.07 9.5 9.61621C9.5 9.20117 9.40869 8.81104 9.22607 8.4458C9.04899 8.08057 8.76676 7.78727 8.37939 7.56592C7.99202 7.33903 7.48568 7.22559 6.86035 7.22559H4.00488V18H2.40283V5.91406H6.86035C7.77344 5.91406 8.54541 6.07178 9.17627 6.38721C9.80713 6.70264 10.2858 7.13981 10.6123 7.69873C10.9388 8.25212 11.1021 8.88574 11.1021 9.59961C11.1021 10.3743 10.9388 11.0356 10.6123 11.5835C10.2858 12.1313 9.80713 12.5492 9.17627 12.8369C8.54541 13.1191 7.77344 13.2603 6.86035 13.2603ZM14.4307 10.4297V18H12.895V9.01855H14.3892L14.4307 10.4297ZM17.2363 8.96875L17.228 10.3965C17.1007 10.3688 16.979 10.3522 16.8628 10.3467C16.7521 10.3356 16.6248 10.3301 16.481 10.3301C16.1268 10.3301 15.8141 10.3854 15.543 10.4961C15.2718 10.6068 15.0422 10.7617 14.854 10.9609C14.6659 11.1602 14.5164 11.3981 14.4058 11.6748C14.3006 11.946 14.2314 12.2448 14.1982 12.5713L13.7666 12.8203C13.7666 12.278 13.8192 11.7689 13.9243 11.293C14.035 10.8171 14.2038 10.3965 14.4307 10.0312C14.6576 9.66048 14.9453 9.37272 15.2939 9.16797C15.6481 8.95768 16.0687 8.85254 16.5557 8.85254C16.6663 8.85254 16.7936 8.86637 16.9375 8.89404C17.0814 8.91618 17.181 8.94108 17.2363 8.96875ZM22.2168 18.166C21.5915 18.166 21.0243 18.0609 20.5151 17.8506C20.0116 17.6348 19.5771 17.3332 19.2119 16.9458C18.8522 16.5584 18.5755 16.0991 18.3818 15.5679C18.1882 15.0366 18.0913 14.4556 18.0913 13.8247V13.4761C18.0913 12.7456 18.1992 12.0954 18.415 11.5254C18.6309 10.9499 18.9242 10.4629 19.2949 10.0645C19.6657 9.66602 20.0863 9.36442 20.5566 9.15967C21.027 8.95492 21.514 8.85254 22.0176 8.85254C22.6595 8.85254 23.2129 8.96322 23.6777 9.18457C24.1481 9.40592 24.5327 9.71582 24.8315 10.1143C25.1304 10.5072 25.3517 10.972 25.4956 11.5088C25.6395 12.04 25.7114 12.6211 25.7114 13.252V13.9409H19.0044V12.6875H24.1758V12.5713C24.1536 12.1729 24.0706 11.7855 23.9268 11.4092C23.7884 11.0329 23.5671 10.723 23.2627 10.4795C22.9583 10.236 22.5433 10.1143 22.0176 10.1143C21.6689 10.1143 21.348 10.189 21.0547 10.3384C20.7614 10.4823 20.5096 10.6981 20.2993 10.9858C20.089 11.2736 19.9258 11.625 19.8096 12.04C19.6934 12.4551 19.6353 12.9338 19.6353 13.4761V13.8247C19.6353 14.2508 19.6934 14.652 19.8096 15.0283C19.9313 15.3991 20.1056 15.7256 20.3325 16.0078C20.5649 16.29 20.8444 16.5114 21.1709 16.6719C21.5029 16.8324 21.8792 16.9126 22.2998 16.9126C22.8421 16.9126 23.3014 16.8019 23.6777 16.5806C24.054 16.3592 24.3833 16.0632 24.6655 15.6924L25.5952 16.4312C25.4015 16.7244 25.1553 17.0039 24.8564 17.2695C24.5576 17.5352 24.1896 17.751 23.7524 17.917C23.3208 18.083 22.8089 18.166 22.2168 18.166ZM32.7339 15.6177C32.7339 15.3963 32.6841 15.1916 32.5845 15.0034C32.4904 14.8097 32.2939 14.6354 31.9951 14.4805C31.7018 14.32 31.2591 14.1816 30.667 14.0654C30.1689 13.9603 29.7179 13.8358 29.314 13.6919C28.9155 13.548 28.5752 13.3737 28.293 13.1689C28.0163 12.9642 27.8032 12.7235 27.6538 12.4468C27.5044 12.1701 27.4297 11.8464 27.4297 11.4756C27.4297 11.1214 27.5072 10.7866 27.6621 10.4712C27.8226 10.1558 28.0467 9.8763 28.3345 9.63281C28.6278 9.38932 28.9792 9.1984 29.3887 9.06006C29.7982 8.92171 30.2547 8.85254 30.7583 8.85254C31.4777 8.85254 32.092 8.97982 32.6011 9.23438C33.1102 9.48893 33.5003 9.82926 33.7715 10.2554C34.0426 10.6759 34.1782 11.1436 34.1782 11.6582H32.6426C32.6426 11.4092 32.5679 11.1685 32.4185 10.936C32.2746 10.6981 32.0615 10.5016 31.7793 10.3467C31.5026 10.1917 31.1623 10.1143 30.7583 10.1143C30.3322 10.1143 29.9863 10.1807 29.7207 10.3135C29.4606 10.4408 29.2697 10.604 29.1479 10.8032C29.0317 11.0024 28.9736 11.2127 28.9736 11.4341C28.9736 11.6001 29.0013 11.7495 29.0566 11.8823C29.1175 12.0096 29.2227 12.1286 29.3721 12.2393C29.5215 12.3444 29.7318 12.444 30.0029 12.5381C30.2741 12.6322 30.62 12.7262 31.0405 12.8203C31.7765 12.9863 32.3825 13.1855 32.8584 13.418C33.3343 13.6504 33.6885 13.9354 33.9209 14.2729C34.1533 14.6105 34.2695 15.02 34.2695 15.5015C34.2695 15.8944 34.1865 16.2541 34.0205 16.5806C33.86 16.9071 33.6248 17.1893 33.3149 17.4272C33.0106 17.6597 32.6453 17.8423 32.2192 17.9751C31.7987 18.1024 31.3255 18.166 30.7998 18.166C30.0085 18.166 29.3389 18.0249 28.791 17.7427C28.2432 17.4604 27.8281 17.0952 27.5459 16.647C27.2637 16.1987 27.1226 15.7256 27.1226 15.2275H28.6665C28.6886 15.6481 28.8104 15.9829 29.0317 16.2319C29.2531 16.4754 29.5243 16.6497 29.8452 16.7549C30.1662 16.8545 30.4844 16.9043 30.7998 16.9043C31.2204 16.9043 31.5718 16.849 31.854 16.7383C32.1418 16.6276 32.3604 16.4754 32.5098 16.2817C32.6592 16.0881 32.7339 15.8667 32.7339 15.6177ZM40.0137 18.166C39.3883 18.166 38.8211 18.0609 38.312 17.8506C37.8084 17.6348 37.374 17.3332 37.0088 16.9458C36.6491 16.5584 36.3724 16.0991 36.1787 15.5679C35.985 15.0366 35.8882 14.4556 35.8882 13.8247V13.4761C35.8882 12.7456 35.9961 12.0954 36.2119 11.5254C36.4277 10.9499 36.721 10.4629 37.0918 10.0645C37.4626 9.66602 37.8831 9.36442 38.3535 9.15967C38.8239 8.95492 39.3109 8.85254 39.8145 8.85254C40.4564 8.85254 41.0098 8.96322 41.4746 9.18457C41.945 9.40592 42.3296 9.71582 42.6284 10.1143C42.9272 10.5072 43.1486 10.972 43.2925 11.5088C43.4364 12.04 43.5083 12.6211 43.5083 13.252V13.9409H36.8013V12.6875H41.9727V12.5713C41.9505 12.1729 41.8675 11.7855 41.7236 11.4092C41.5853 11.0329 41.3639 10.723 41.0596 10.4795C40.7552 10.236 40.3402 10.1143 39.8145 10.1143C39.4658 10.1143 39.1449 10.189 38.8516 10.3384C38.5583 10.4823 38.3065 10.6981 38.0962 10.9858C37.8859 11.2736 37.7227 11.625 37.6064 12.04C37.4902 12.4551 37.4321 12.9338 37.4321 13.4761V13.8247C37.4321 14.2508 37.4902 14.652 37.6064 15.0283C37.7282 15.3991 37.9025 15.7256 38.1294 16.0078C38.3618 16.29 38.6413 16.5114 38.9678 16.6719C39.2998 16.8324 39.6761 16.9126 40.0967 16.9126C40.639 16.9126 41.0983 16.8019 41.4746 16.5806C41.8509 16.3592 42.1802 16.0632 42.4624 15.6924L43.3921 16.4312C43.1984 16.7244 42.9521 17.0039 42.6533 17.2695C42.3545 17.5352 41.9865 17.751 41.5493 17.917C41.1177 18.083 40.6058 18.166 40.0137 18.166ZM49.0615 9.01855V10.1973H44.2056V9.01855H49.0615ZM45.8491 6.83545H47.3848V15.7754C47.3848 16.0798 47.4318 16.3094 47.5259 16.4644C47.62 16.6193 47.7417 16.7217 47.8911 16.7715C48.0405 16.8213 48.201 16.8462 48.3726 16.8462C48.4998 16.8462 48.6326 16.8351 48.771 16.813C48.9149 16.7853 49.0228 16.7632 49.0947 16.7466L49.103 18C48.9813 18.0387 48.8208 18.0747 48.6216 18.1079C48.4279 18.1466 48.1927 18.166 47.916 18.166C47.5397 18.166 47.1938 18.0913 46.8784 17.9419C46.563 17.7925 46.3112 17.5435 46.123 17.1948C45.9404 16.8407 45.8491 16.3647 45.8491 15.7671V6.83545ZM60.3091 15.6177C60.3091 15.3963 60.2593 15.1916 60.1597 15.0034C60.0656 14.8097 59.8691 14.6354 59.5703 14.4805C59.277 14.32 58.8343 14.1816 58.2422 14.0654C57.7441 13.9603 57.2931 13.8358 56.8892 13.6919C56.4907 13.548 56.1504 13.3737 55.8682 13.1689C55.5915 12.9642 55.3784 12.7235 55.229 12.4468C55.0796 12.1701 55.0049 11.8464 55.0049 11.4756C55.0049 11.1214 55.0824 10.7866 55.2373 10.4712C55.3978 10.1558 55.6219 9.8763 55.9097 9.63281C56.203 9.38932 56.5544 9.1984 56.9639 9.06006C57.3734 8.92171 57.8299 8.85254 58.3335 8.85254C59.0529 8.85254 59.6672 8.97982 60.1763 9.23438C60.6854 9.48893 61.0755 9.82926 61.3467 10.2554C61.6178 10.6759 61.7534 11.1436 61.7534 11.6582H60.2178C60.2178 11.4092 60.1431 11.1685 59.9937 10.936C59.8498 10.6981 59.6367 10.5016 59.3545 10.3467C59.0778 10.1917 58.7375 10.1143 58.3335 10.1143C57.9074 10.1143 57.5615 10.1807 57.2959 10.3135C57.0358 10.4408 56.8449 10.604 56.7231 10.8032C56.6069 11.0024 56.5488 11.2127 56.5488 11.4341C56.5488 11.6001 56.5765 11.7495 56.6318 11.8823C56.6927 12.0096 56.7979 12.1286 56.9473 12.2393C57.0967 12.3444 57.307 12.444 57.5781 12.5381C57.8493 12.6322 58.1951 12.7262 58.6157 12.8203C59.3517 12.9863 59.9577 13.1855 60.4336 13.418C60.9095 13.6504 61.2637 13.9354 61.4961 14.2729C61.7285 14.6105 61.8447 15.02 61.8447 15.5015C61.8447 15.8944 61.7617 16.2541 61.5957 16.5806C61.4352 16.9071 61.2 17.1893 60.8901 17.4272C60.5858 17.6597 60.2205 17.8423 59.7944 17.9751C59.3739 18.1024 58.9007 18.166 58.375 18.166C57.5837 18.166 56.9141 18.0249 56.3662 17.7427C55.8184 17.4604 55.4033 17.0952 55.1211 16.647C54.8389 16.1987 54.6978 15.7256 54.6978 15.2275H56.2417C56.2638 15.6481 56.3856 15.9829 56.6069 16.2319C56.8283 16.4754 57.0994 16.6497 57.4204 16.7549C57.7414 16.8545 58.0596 16.9043 58.375 16.9043C58.7956 16.9043 59.147 16.849 59.4292 16.7383C59.717 16.6276 59.9355 16.4754 60.085 16.2817C60.2344 16.0881 60.3091 15.8667 60.3091 15.6177ZM67.6221 9.01855V10.1973H62.7661V9.01855H67.6221ZM64.4097 6.83545H65.9453V15.7754C65.9453 16.0798 65.9924 16.3094 66.0864 16.4644C66.1805 16.6193 66.3022 16.7217 66.4517 16.7715C66.6011 16.8213 66.7616 16.8462 66.9331 16.8462C67.0604 16.8462 67.1932 16.8351 67.3315 16.813C67.4754 16.7853 67.5833 16.7632 67.6553 16.7466L67.6636 18C67.5418 18.0387 67.3813 18.0747 67.1821 18.1079C66.9884 18.1466 66.7533 18.166 66.4766 18.166C66.1003 18.166 65.7544 18.0913 65.439 17.9419C65.1235 17.7925 64.8717 17.5435 64.6836 17.1948C64.501 16.8407 64.4097 16.3647 64.4097 15.7671V6.83545ZM68.8506 13.6089V13.418C68.8506 12.7705 68.9447 12.1701 69.1328 11.6167C69.321 11.0578 69.5921 10.5736 69.9463 10.1641C70.3005 9.74902 70.7293 9.42806 71.2329 9.20117C71.7365 8.96875 72.3009 8.85254 72.9263 8.85254C73.5571 8.85254 74.1243 8.96875 74.6279 9.20117C75.137 9.42806 75.5687 9.74902 75.9229 10.1641C76.2826 10.5736 76.5565 11.0578 76.7446 11.6167C76.9328 12.1701 77.0269 12.7705 77.0269 13.418V13.6089C77.0269 14.2563 76.9328 14.8568 76.7446 15.4102C76.5565 15.9635 76.2826 16.4478 75.9229 16.8628C75.5687 17.2723 75.1398 17.5933 74.6362 17.8257C74.1382 18.0526 73.5737 18.166 72.9429 18.166C72.312 18.166 71.7448 18.0526 71.2412 17.8257C70.7376 17.5933 70.306 17.2723 69.9463 16.8628C69.5921 16.4478 69.321 15.9635 69.1328 15.4102C68.9447 14.8568 68.8506 14.2563 68.8506 13.6089ZM70.3862 13.418V13.6089C70.3862 14.0571 70.4388 14.4805 70.5439 14.8789C70.6491 15.2718 70.8068 15.6204 71.0171 15.9248C71.2329 16.2292 71.5013 16.4699 71.8223 16.647C72.1432 16.8185 72.5168 16.9043 72.9429 16.9043C73.3634 16.9043 73.7314 16.8185 74.0469 16.647C74.3678 16.4699 74.6335 16.2292 74.8438 15.9248C75.054 15.6204 75.2118 15.2718 75.3169 14.8789C75.4276 14.4805 75.4829 14.0571 75.4829 13.6089V13.418C75.4829 12.9753 75.4276 12.5575 75.3169 12.1646C75.2118 11.7661 75.0513 11.4147 74.8354 11.1104C74.6252 10.8005 74.3595 10.557 74.0386 10.3799C73.7231 10.2028 73.3524 10.1143 72.9263 10.1143C72.5057 10.1143 72.1349 10.2028 71.814 10.3799C71.4985 10.557 71.2329 10.8005 71.0171 11.1104C70.8068 11.4147 70.6491 11.7661 70.5439 12.1646C70.4388 12.5575 70.3862 12.9753 70.3862 13.418ZM80.4883 10.4297V18H78.9526V9.01855H80.4468L80.4883 10.4297ZM83.2939 8.96875L83.2856 10.3965C83.1584 10.3688 83.0366 10.3522 82.9204 10.3467C82.8097 10.3356 82.6825 10.3301 82.5386 10.3301C82.1844 10.3301 81.8717 10.3854 81.6006 10.4961C81.3294 10.6068 81.0998 10.7617 80.9116 10.9609C80.7235 11.1602 80.5741 11.3981 80.4634 11.6748C80.3582 11.946 80.2891 12.2448 80.2559 12.5713L79.8242 12.8203C79.8242 12.278 79.8768 11.7689 79.9819 11.293C80.0926 10.8171 80.2614 10.3965 80.4883 10.0312C80.7152 9.66048 81.0029 9.37272 81.3516 9.16797C81.7057 8.95768 82.1263 8.85254 82.6133 8.85254C82.724 8.85254 82.8512 8.86637 82.9951 8.89404C83.139 8.91618 83.2386 8.94108 83.2939 8.96875ZM88.2744 18.166C87.6491 18.166 87.0819 18.0609 86.5728 17.8506C86.0692 17.6348 85.6348 17.3332 85.2695 16.9458C84.9098 16.5584 84.6331 16.0991 84.4395 15.5679C84.2458 15.0366 84.1489 14.4556 84.1489 13.8247V13.4761C84.1489 12.7456 84.2568 12.0954 84.4727 11.5254C84.6885 10.9499 84.9818 10.4629 85.3525 10.0645C85.7233 9.66602 86.1439 9.36442 86.6143 9.15967C87.0846 8.95492 87.5716 8.85254 88.0752 8.85254C88.7171 8.85254 89.2705 8.96322 89.7354 9.18457C90.2057 9.40592 90.5903 9.71582 90.8892 10.1143C91.188 10.5072 91.4093 10.972 91.5532 11.5088C91.6971 12.04 91.769 12.6211 91.769 13.252V13.9409H85.062V12.6875H90.2334V12.5713C90.2113 12.1729 90.1283 11.7855 89.9844 11.4092C89.846 11.0329 89.6247 10.723 89.3203 10.4795C89.016 10.236 88.6009 10.1143 88.0752 10.1143C87.7266 10.1143 87.4056 10.189 87.1123 10.3384C86.819 10.4823 86.5672 10.6981 86.3569 10.9858C86.1466 11.2736 85.9834 11.625 85.8672 12.04C85.751 12.4551 85.6929 12.9338 85.6929 13.4761V13.8247C85.6929 14.2508 85.751 14.652 85.8672 15.0283C85.9889 15.3991 86.1632 15.7256 86.3901 16.0078C86.6226 16.29 86.902 16.5114 87.2285 16.6719C87.5605 16.8324 87.9368 16.9126 88.3574 16.9126C88.8997 16.9126 89.359 16.8019 89.7354 16.5806C90.1117 16.3592 90.4409 16.0632 90.7231 15.6924L91.6528 16.4312C91.4591 16.7244 91.2129 17.0039 90.9141 17.2695C90.6152 17.5352 90.2472 17.751 89.8101 17.917C89.3784 18.083 88.8665 18.166 88.2744 18.166Z" fill="#3A5F56"/>
<g clip-path="url(#clip0_2_166)">
<path d="M120.68 10.7731L117.203 7.34198C116.726 6.89721 115.976 6.89721 115.499 7.27844C115.021 7.72322 115.021 8.42216 115.43 8.86693L117.407 10.8367H103.227C102.545 10.8367 102 11.345 102 11.9804C102 12.6158 102.545 13.1241 103.227 13.1241H117.476L115.499 15.0938C115.021 15.5386 115.09 16.2375 115.567 16.6823C115.771 16.8729 116.112 17 116.385 17C116.726 17 116.998 16.8729 117.271 16.6823L120.748 13.2512C121.362 12.4887 121.362 11.4721 120.68 10.7731Z" fill="#3A5F56"/>
</g>
<defs>
<clipPath id="clip0_2_166">
<rect width="20" height="10" fill="white" transform="translate(102 7)"/>
</clipPath>
</defs>
</svg>
